<!-- <svg id="visual"  preserveAspectRatio="none" viewBox="0 0 900 600" fill="none" xmlns="http://www.w3.org/2000/svg">
<g clip-path="url(#clip0_6_284)">
<path d="M900 0H0V600H900V0Z" fill="#f8fafc"/>
<path d="M459.7 0C449.7 61.4 439.8 122.9 411.1 170.3C382.5 217.7 335.2 251.1 295.6 295.6C255.9 340 223.9 395.5 175.9 424.7C127.9 453.9 64 456.8 0 459.7V0H459.7Z" fill="#DFE3E8"/>
<path d="M394 0C385.5 52.7 376.9 105.3 352.4 146C327.9 186.6 287.3 215.2 253.3 253.3C219.4 291.4 191.9 339 150.8 364C109.7 389.1 54.8 391.6 0 394V0H394Z" fill="#BDC1C6"/>
<path d="M328.4 0C321.2 43.9 314.1 87.8 293.7 121.6C273.2 155.5 239.4 179.4 211.1 211.1C182.8 242.9 159.9 282.5 125.7 303.4C91.4 324.2 45.7 326.3 0 328.4V0H328.4Z" fill="#9BA0A5"/>
<path d="M262.7 0C257 35.1 251.3 70.2 234.9 97.3C218.6 124.4 191.6 143.5 168.9 168.9C146.2 194.3 127.9 226 100.5 242.7C73.1 259.4 36.6 261 0 262.7V0H262.7Z" fill="#7B8085"/>
<path d="M197 0C192.7 26.3 188.5 52.7 176.2 73C163.9 93.3 143.7 107.6 126.7 126.7C109.7 145.7 96 169.5 75.4 182C54.8 194.5 27.4 195.8 0 197V0H197Z" fill="#5C6167"/>
<path d="M131.3 0C128.5 17.6 125.6 35.1 117.5 48.7C109.3 62.2 95.8 71.7 84.4 84.4C73.1 97.1 64 113 50.3 121.3C36.6 129.7 18.3 130.5 0 131.3V0H131.3Z" fill="#3F444A"/>
<path d="M65.7 0C64.2 8.8 62.8 17.6 58.7 24.3C54.6 31.1 47.9 35.9 42.2 42.2C36.6 48.6 32 56.5 25.1 60.7C18.3 64.8 9.1 65.3 0 65.7V0H65.7Z" fill="#31363C"/>
</g>
<defs>
<clipPath id="clip0_6_284">
<rect width="900" height="600" fill="white"/>
</clipPath>
</defs>
</svg> -->


<svg id="visual"  preserveAspectRatio="none" viewBox="0 0 900 600" fill="none" xmlns="http://www.w3.org/2000/svg">
<g clip-path="url(#clip0_13_2)">
<path d="M900 0H0V600H900V0Z" fill="white"/>
<path d="M900 432.7C843.1 426.5 786.2 420.3 734.4 399.7C682.7 379.2 636.1 344.3 596.7 303.3C557.2 262.4 524.9 215.4 504.6 163.8C484.2 112.2 475.8 56.1 467.3 0H900V432.7Z" fill="#FAF4FE"/>
<path d="M900 378.6C850.2 373.2 800.4 367.7 755.1 349.8C709.8 331.8 669.1 301.3 634.6 265.4C600.1 229.6 571.8 188.4 554 143.3C536.2 98.2 528.8 49.1 521.4 0H900V378.6Z" fill="#EFE0FB"/>
<path d="M900 324.5C857.3 319.9 814.6 315.2 775.8 299.8C737 284.4 702.1 258.2 672.5 227.5C642.9 196.8 618.7 161.5 603.4 122.8C588.2 84.2 581.8 42.1 575.5 0H900V324.5Z" fill="#E4CBF8"/>
<path d="M900 270.4C864.4 266.5 828.9 262.7 796.5 249.8C764.2 237 735.1 215.2 710.4 189.6C685.8 164 665.6 134.6 652.9 102.4C640.1 70.1 634.9 35.1 629.6 0H900V270.4Z" fill="#D9B6F5"/>
<path d="M900 216.3C871.5 213.2 843.1 210.1 817.2 199.9C791.3 189.6 768 172.2 748.3 151.7C728.6 131.2 712.5 107.7 702.3 81.9C692.1 56.1 687.9 28.1 683.7 0H900V216.3Z" fill="#CDA2F2"/>
<path d="M900 162.2C878.7 159.9 857.3 157.6 837.9 149.9C818.5 142.2 801 129.1 786.2 113.8C771.5 98.4 759.4 80.8 751.7 61.4C744.1 42.1 740.9 21 737.8 0H900V162.2Z" fill="#C08DEE"/>
<path d="M900 108.2C885.8 106.6 871.5 105.1 858.6 99.9C845.7 94.8 834 86.1 824.2 75.8C814.3 65.6 806.2 53.8 801.1 40.9C796.1 28.1 793.9 14 791.8 0H900V108.2Z" fill="#B378EB"/>
<path d="M900 54.1C892.9 53.3 885.8 52.5 879.3 50C872.8 47.4 867 43 862.1 37.9C857.2 32.8 853.1 26.9 850.6 20.5C848 14 847 7 845.9 0H900V54.1Z" fill="#AC6EE9"/>
</g>
<defs>
<clipPath id="clip0_13_2">
<rect width="900" height="600" fill="white"/>
</clipPath>
</defs>
</svg>
