<!-- <svg  id="visual" viewBox="0 0 900 450" preserveAspectRatio="none" xmlns="http://www.w3.org/2000/svg" xmlns:xlink="http://www.w3.org/1999/xlink" version="1.1"><rect x="0" y="0" width="900" height="450" fill="#31363C"></rect><defs><linearGradient id="grad1_0" x1="50%" y1="0%" x2="100%" y2="100%"><stop offset="10%" stop-color="#974ae4" stop-opacity="1"></stop><stop offset="90%" stop-color="#974ae4" stop-opacity="1"></stop></linearGradient></defs><defs><linearGradient id="grad1_1" x1="50%" y1="0%" x2="100%" y2="100%"><stop offset="10%" stop-color="#974ae4" stop-opacity="1"></stop><stop offset="90%" stop-color="#4754b8" stop-opacity="1"></stop></linearGradient></defs><defs><linearGradient id="grad1_2" x1="50%" y1="0%" x2="100%" y2="100%"><stop offset="10%" stop-color="#27497c" stop-opacity="1"></stop><stop offset="90%" stop-color="#4754b8" stop-opacity="1"></stop></linearGradient></defs><defs><linearGradient id="grad1_3" x1="50%" y1="0%" x2="100%" y2="100%"><stop offset="10%" stop-color="#27497c" stop-opacity="1"></stop><stop offset="90%" stop-color="#31363c" stop-opacity="1"></stop></linearGradient></defs><defs><linearGradient id="grad2_0" x1="0%" y1="0%" x2="50%" y2="100%"><stop offset="10%" stop-color="#974ae4" stop-opacity="1"></stop><stop offset="90%" stop-color="#974ae4" stop-opacity="1"></stop></linearGradient></defs><defs><linearGradient id="grad2_1" x1="0%" y1="0%" x2="50%" y2="100%"><stop offset="10%" stop-color="#4754b8" stop-opacity="1"></stop><stop offset="90%" stop-color="#974ae4" stop-opacity="1"></stop></linearGradient></defs><defs><linearGradient id="grad2_2" x1="0%" y1="0%" x2="50%" y2="100%"><stop offset="10%" stop-color="#4754b8" stop-opacity="1"></stop><stop offset="90%" stop-color="#27497c" stop-opacity="1"></stop></linearGradient></defs><defs><linearGradient id="grad2_3" x1="0%" y1="0%" x2="50%" y2="100%"><stop offset="10%" stop-color="#31363c" stop-opacity="1"></stop><stop offset="90%" stop-color="#27497c" stop-opacity="1"></stop></linearGradient></defs><g transform="translate(900, 0)"><path d="M0 247.5C-44.7 241.8 -89.4 236.2 -123.7 214.3C-158.1 192.5 -182 154.4 -200.9 116C-219.8 77.6 -233.7 38.8 -247.5 0L0 0Z" fill="#2b405b"></path><path d="M0 185.6C-33.5 181.4 -67.1 177.1 -92.8 160.8C-118.6 144.4 -136.5 115.8 -150.7 87C-164.9 58.2 -175.2 29.1 -185.6 0L0 0Z" fill="#2e509b"></path><path d="M0 123.8C-22.4 120.9 -44.7 118.1 -61.9 107.2C-79 96.2 -91 77.2 -100.5 58C-109.9 38.8 -116.8 19.4 -123.7 0L0 0Z" fill="#6c52d1"></path><path d="M0 61.9C-11.2 60.5 -22.4 59 -30.9 53.6C-39.5 48.1 -45.5 38.6 -50.2 29C-55 19.4 -58.4 9.7 -61.9 0L0 0Z" fill="#974ae4"></path></g><g transform="translate(0, 450)"><path d="M0 -247.5C44.5 -241.7 89 -235.9 123.7 -214.3C158.5 -192.8 183.6 -155.4 202.6 -117C221.7 -78.6 234.6 -39.3 247.5 0L0 0Z" fill="#2b405b"></path><path d="M0 -185.6C33.4 -181.3 66.7 -176.9 92.8 -160.8C118.9 -144.6 137.7 -116.5 152 -87.8C166.2 -59 175.9 -29.5 185.6 0L0 0Z" fill="#2e509b"></path><path d="M0 -123.7C22.2 -120.9 44.5 -118 61.9 -107.2C79.3 -96.4 91.8 -77.7 101.3 -58.5C110.8 -39.3 117.3 -19.7 123.8 0L0 0Z" fill="#6c52d1"></path><path d="M0 -61.9C11.1 -60.4 22.2 -59 30.9 -53.6C39.6 -48.2 45.9 -38.8 50.7 -29.3C55.4 -19.7 58.6 -9.8 61.9 0L0 0Z" fill="#974ae4"></path></g></svg> -->
<svg id="visual" viewBox="0 0 900 450" preserveAspectRatio="none" fill="none" xmlns="http://www.w3.org/2000/svg">
<g clip-path="url(#clip0_11_318)">
<path d="M1028 0H0V514H1028V0Z" fill="#F8FAFC"/>
<path d="M359.8 0C351.119 64.1929 342.552 128.5 311.598 179.9C280.644 231.3 227.531 269.907 171.904 297.777C116.278 325.648 58.1391 342.667 0 359.8V0H359.8Z" fill="#E7F1FD"/>
<path d="M308.4 0C300.976 55.0551 293.551 110.11 267.052 154.2C240.552 198.29 195.092 231.3 147.347 255.172C99.6018 279.045 49.8009 293.78 0 308.4V0H308.4Z" fill="#C9DFFF"/>
<path d="M257 0C250.832 45.9173 244.664 91.7204 222.619 128.5C200.46 165.28 162.538 192.807 122.789 212.682C83.0396 232.556 41.5769 244.778 0 257V0H257Z" fill="#B3CAFF"/>
<path d="M205.6 0C200.688 36.6653 195.663 73.4449 178.072 102.8C160.368 132.155 129.985 154.2 98.2311 170.191C66.4773 186.068 33.2387 195.777 0 205.6V0H205.6Z" fill="#A5B3FF"/>
<path d="M154.2 0C150.545 27.5276 146.776 55.0551 133.526 77.1C120.276 99.1449 97.5458 115.707 73.6733 127.586C49.8009 139.58 24.9004 146.89 0 154.2V0H154.2Z" fill="#A29AFC"/>
<path d="M102.8 0C100.287 18.3898 97.8885 36.6653 88.9791 51.4C80.184 66.1347 64.9924 77.1 49.1156 85.0956C33.2387 92.9769 16.5622 97.8884 0 102.8V0H102.8Z" fill="#A77EF1"/>
<path d="M51.4 0C50.1436 9.13778 48.8871 18.3898 44.5467 25.7C40.092 33.0102 32.5533 38.6071 24.5578 42.4907C16.5622 46.4884 8.33822 49.0013 0 51.4V0H51.4Z" fill="#AC6EE9"/>
</g>
<defs>
<clipPath id="clip0_11_318">
<rect width="1028" height="514" fill="white"/>
</clipPath>
</defs>
</svg>
