<svg  id="visual" viewBox="0 0 900 450" preserveAspectRatio="none" xmlns="http://www.w3.org/2000/svg" xmlns:xlink="http://www.w3.org/1999/xlink" version="1.1"><rect x="0" y="0" width="900" height="450" fill="#31363C"></rect><defs><linearGradient id="grad1_0" x1="50%" y1="0%" x2="100%" y2="100%"><stop offset="10%" stop-color="#974ae4" stop-opacity="1"></stop><stop offset="90%" stop-color="#974ae4" stop-opacity="1"></stop></linearGradient></defs><defs><linearGradient id="grad1_1" x1="50%" y1="0%" x2="100%" y2="100%"><stop offset="10%" stop-color="#974ae4" stop-opacity="1"></stop><stop offset="90%" stop-color="#4754b8" stop-opacity="1"></stop></linearGradient></defs><defs><linearGradient id="grad1_2" x1="50%" y1="0%" x2="100%" y2="100%"><stop offset="10%" stop-color="#27497c" stop-opacity="1"></stop><stop offset="90%" stop-color="#4754b8" stop-opacity="1"></stop></linearGradient></defs><defs><linearGradient id="grad1_3" x1="50%" y1="0%" x2="100%" y2="100%"><stop offset="10%" stop-color="#27497c" stop-opacity="1"></stop><stop offset="90%" stop-color="#31363c" stop-opacity="1"></stop></linearGradient></defs><defs><linearGradient id="grad2_0" x1="0%" y1="0%" x2="50%" y2="100%"><stop offset="10%" stop-color="#974ae4" stop-opacity="1"></stop><stop offset="90%" stop-color="#974ae4" stop-opacity="1"></stop></linearGradient></defs><defs><linearGradient id="grad2_1" x1="0%" y1="0%" x2="50%" y2="100%"><stop offset="10%" stop-color="#4754b8" stop-opacity="1"></stop><stop offset="90%" stop-color="#974ae4" stop-opacity="1"></stop></linearGradient></defs><defs><linearGradient id="grad2_2" x1="0%" y1="0%" x2="50%" y2="100%"><stop offset="10%" stop-color="#4754b8" stop-opacity="1"></stop><stop offset="90%" stop-color="#27497c" stop-opacity="1"></stop></linearGradient></defs><defs><linearGradient id="grad2_3" x1="0%" y1="0%" x2="50%" y2="100%"><stop offset="10%" stop-color="#31363c" stop-opacity="1"></stop><stop offset="90%" stop-color="#27497c" stop-opacity="1"></stop></linearGradient></defs><g transform="translate(900, 0)"><path d="M0 247.5C-44.7 241.8 -89.4 236.2 -123.7 214.3C-158.1 192.5 -182 154.4 -200.9 116C-219.8 77.6 -233.7 38.8 -247.5 0L0 0Z" fill="#2b405b"></path><path d="M0 185.6C-33.5 181.4 -67.1 177.1 -92.8 160.8C-118.6 144.4 -136.5 115.8 -150.7 87C-164.9 58.2 -175.2 29.1 -185.6 0L0 0Z" fill="#2e509b"></path><path d="M0 123.8C-22.4 120.9 -44.7 118.1 -61.9 107.2C-79 96.2 -91 77.2 -100.5 58C-109.9 38.8 -116.8 19.4 -123.7 0L0 0Z" fill="#6c52d1"></path><path d="M0 61.9C-11.2 60.5 -22.4 59 -30.9 53.6C-39.5 48.1 -45.5 38.6 -50.2 29C-55 19.4 -58.4 9.7 -61.9 0L0 0Z" fill="#974ae4"></path></g><g transform="translate(0, 450)"><path d="M0 -247.5C44.5 -241.7 89 -235.9 123.7 -214.3C158.5 -192.8 183.6 -155.4 202.6 -117C221.7 -78.6 234.6 -39.3 247.5 0L0 0Z" fill="#2b405b"></path><path d="M0 -185.6C33.4 -181.3 66.7 -176.9 92.8 -160.8C118.9 -144.6 137.7 -116.5 152 -87.8C166.2 -59 175.9 -29.5 185.6 0L0 0Z" fill="#2e509b"></path><path d="M0 -123.7C22.2 -120.9 44.5 -118 61.9 -107.2C79.3 -96.4 91.8 -77.7 101.3 -58.5C110.8 -39.3 117.3 -19.7 123.8 0L0 0Z" fill="#6c52d1"></path><path d="M0 -61.9C11.1 -60.4 22.2 -59 30.9 -53.6C39.6 -48.2 45.9 -38.8 50.7 -29.3C55.4 -19.7 58.6 -9.8 61.9 0L0 0Z" fill="#974ae4"></path></g></svg>