<!-- <svg width="410" height="404" viewBox="0 0 410 404" fill="none" xmlns="http://www.w3.org/2000/svg">
<path d="M399.641 59.5246L215.643 388.545C211.844 395.338 202.084 395.378 198.228 388.618L10.5817 59.5563C6.38087 52.1896 12.6802 43.2665 21.0281 44.7586L205.223 77.6824C206.398 77.8924 207.601 77.8904 208.776 77.6763L389.119 44.8058C397.439 43.2894 403.768 52.1434 399.641 59.5246Z" fill="url(#paint0_linear)"/>
<path d="M292.965 1.5744L156.801 28.2552C154.563 28.6937 152.906 30.5903 152.771 32.8664L144.395 174.33C144.198 177.662 147.258 180.248 150.51 179.498L188.42 170.749C191.967 169.931 195.172 173.055 194.443 176.622L183.18 231.775C182.422 235.487 185.907 238.661 189.532 237.56L212.947 230.446C216.577 229.344 220.065 232.527 219.297 236.242L201.398 322.875C200.278 328.294 207.486 331.249 210.492 326.603L212.5 323.5L323.454 102.072C325.312 98.3645 322.108 94.137 318.036 94.9228L279.014 102.454C275.347 103.161 272.227 99.746 273.262 96.1583L298.731 7.86689C299.767 4.27314 296.636 0.855181 292.965 1.5744Z" fill="url(#paint1_linear)"/>
<defs>
<linearGradient id="paint0_linear" x1="6.00017" y1="32.9999" x2="235" y2="344" gradientUnits="userSpaceOnUse">
<stop stop-color="#41D1FF"/>
<stop offset="1" stop-color="#BD34FE"/>
</linearGradient>
<linearGradient id="paint1_linear" x1="194.651" y1="8.81818" x2="236.076" y2="292.989" gradientUnits="userSpaceOnUse">
<stop stop-color="#FFEA83"/>
<stop offset="0.0833333" stop-color="#FFDD35"/>
<stop offset="1" stop-color="#FFA800"/>
</linearGradient>
</defs>
</svg> -->

<?xml version="1.0" encoding="UTF-8"?>
<svg xmlns="http://www.w3.org/2000/svg" xmlns:xlink="http://www.w3.org/1999/xlink" width="32px" height="27px" viewBox="0 0 31 27" version="1.1">
<defs>
<linearGradient id="linear0" gradientUnits="userSpaceOnUse" x1="648.5" y1="-4.00001" x2="841" y2="166" gradientTransform="matrix(0.0353075,0,0,0.0364372,0,0)">
<stop offset="0.276837" style="stop-color:rgb(65.098039%,29.019608%,89.411765%);stop-opacity:1;"/>
<stop offset="0.744792" style="stop-color:rgb(49.019608%,58.039216%,99.607843%);stop-opacity:1;"/>
</linearGradient>
</defs>
<g id="surface1">
<path style=" stroke:none;fill-rule:nonzero;fill:rgb(94.509804%,95.294118%,95.686275%);fill-opacity:1;" d="M 2.152344 27 C 0.71875 27 0 26.734375 0 26.199219 C 0 26.101562 0.0117188 26.003906 0.0351562 25.90625 C 0.0820312 25.785156 0.117188 25.664062 0.140625 25.542969 L 7.910156 2.113281 C 8.097656 1.601562 8.769531 1.347656 9.921875 1.347656 L 11.757812 1.347656 C 12.933594 1.347656 13.605469 1.601562 13.769531 2.113281 L 21.539062 25.542969 C 21.609375 25.785156 21.644531 26.003906 21.644531 26.199219 C 21.644531 26.734375 21.054688 27 19.878906 27 L 18.324219 27 C 17.808594 27 17.371094 26.953125 17.019531 26.855469 C 16.664062 26.734375 16.441406 26.527344 16.347656 26.234375 L 14.933594 21.789062 L 6.601562 21.789062 L 5.191406 26.234375 C 5.097656 26.503906 4.90625 26.695312 4.625 26.816406 C 4.34375 26.9375 3.988281 27 3.566406 27 Z M 8.121094 16.980469 L 13.417969 16.980469 L 11.40625 10.492188 C 11.285156 10.105469 11.179688 9.714844 11.085938 9.328125 C 11.015625 8.9375 10.945312 8.550781 10.875 8.160156 L 10.734375 8.160156 C 10.664062 8.550781 10.59375 8.9375 10.523438 9.328125 C 10.449219 9.714844 10.34375 10.105469 10.203125 10.492188 Z M 25.855469 27 C 24.441406 27 23.738281 26.609375 23.738281 25.835938 L 23.738281 8.964844 C 23.738281 8.1875 24.441406 7.796875 25.855469 7.796875 L 26.84375 7.796875 C 28.257812 7.796875 28.960938 8.1875 28.960938 8.964844 L 28.960938 25.835938 C 28.960938 26.609375 28.257812 27 26.84375 27 Z M 26.347656 6.011719 C 25.429688 6.011719 24.761719 5.914062 24.335938 5.71875 C 23.9375 5.527344 23.738281 5.234375 23.738281 4.847656 L 23.738281 2.003906 C 23.738281 1.617188 23.9375 1.324219 24.335938 1.128906 C 24.761719 0.933594 25.429688 0.839844 26.347656 0.839844 C 27.265625 0.839844 27.925781 0.933594 28.328125 1.128906 C 28.75 1.324219 28.960938 1.617188 28.960938 2.003906 L 28.960938 4.847656 C 28.960938 5.234375 28.75 5.527344 28.328125 5.71875 C 27.925781 5.914062 27.265625 6.011719 26.347656 6.011719 Z M 26.347656 6.011719 "/>
<path style=" stroke:none;fill-rule:nonzero;fill:url(#linear0);" d="M 22.984375 2.605469 C 22.984375 1.167969 24.117188 0 25.507812 0 L 27.167969 0 C 28.5625 0 29.695312 1.167969 29.695312 2.605469 L 29.695312 3.441406 C 29.695312 4.882812 28.5625 6.046875 27.167969 6.046875 L 25.507812 6.046875 C 24.117188 6.046875 22.984375 4.882812 22.984375 3.441406 Z M 22.984375 2.605469 "/>
</g>
</svg>
